<svg width="20" height="20" viewBox="0 0 20 20" fill="none" xmlns="http://www.w3.org/2000/svg">
<g clip-path="url(#clip0_112_8902)">
<path d="M1 19L1 1H19V19H1Z" fill="white"/>
<path d="M9.14956 7.04998C9.05474 7.14347 9.00095 7.27079 9.00001 7.40394C8.99907 7.53709 9.05107 7.66516 9.14456 7.75998C9.23805 7.85479 9.36537 7.90858 9.49852 7.90952C9.63167 7.91046 9.75974 7.85846 9.85456 7.76498L11.7346 5.90498V14.85C11.7346 14.9826 11.7872 15.1098 11.881 15.2035C11.9748 15.2973 12.102 15.35 12.2346 15.35C12.3672 15.35 12.4943 15.2973 12.5881 15.2035C12.6819 15.1098 12.7346 14.9826 12.7346 14.85V5.90498L14.5846 7.76498C14.6312 7.81127 14.6865 7.84792 14.7472 7.87285C14.808 7.89778 14.8731 7.91049 14.9388 7.91025C15.0045 7.91002 15.0695 7.89685 15.1301 7.8715C15.1907 7.84614 15.2458 7.8091 15.2921 7.76248C15.3384 7.71586 15.375 7.66058 15.3999 7.59979C15.4249 7.53901 15.4376 7.47391 15.4373 7.40821C15.4371 7.34251 15.4239 7.2775 15.3986 7.2169C15.3732 7.15629 15.3362 7.10127 15.2896 7.05498L12.2346 3.99998L9.14956 7.04998Z" fill="#191919"/>
<path d="M10.225 12.38C10.2256 12.2807 10.1966 12.1834 10.1417 12.1007C10.0868 12.0179 10.0085 11.9534 9.91675 11.9153C9.82503 11.8772 9.72404 11.8673 9.62667 11.8868C9.52929 11.9064 9.43994 11.9545 9.37001 12.025L7.50001 13.88V4.93997C7.50001 4.80737 7.44733 4.68019 7.35356 4.58642C7.25979 4.49265 7.13262 4.43997 7.00001 4.43997C6.8674 4.43997 6.74022 4.49265 6.64645 4.58642C6.55269 4.68019 6.50001 4.80737 6.50001 4.93997V13.88L4.63501 12.025C4.58839 11.9787 4.53311 11.942 4.47232 11.9171C4.41154 11.8922 4.34644 11.8795 4.28074 11.8797C4.21504 11.8799 4.15003 11.8931 4.08943 11.9185C4.02882 11.9438 3.9738 11.9809 3.92751 12.0275C3.88122 12.0741 3.84456 12.1294 3.81963 12.1902C3.79471 12.2509 3.782 12.316 3.78223 12.3817C3.7827 12.5144 3.83586 12.6415 3.93001 12.735L7.00001 15.79L10.07 12.735C10.1182 12.6891 10.1567 12.6341 10.1833 12.5731C10.2099 12.5121 10.2241 12.4465 10.225 12.38Z" fill="#191919"/>
</g>
<rect x="0.5" y="19.5" width="19" height="19" rx="9.5" transform="rotate(-90 0.5 19.5)" stroke="#DFDFDF"/>
<defs>
<clipPath id="clip0_112_8902">
<rect x="1" y="19" width="18" height="18" rx="9" transform="rotate(-90 1 19)" fill="white"/>
</clipPath>
</defs>
</svg>
