<svg width="23" height="22" viewBox="0 0 23 22" fill="none" xmlns="http://www.w3.org/2000/svg">
<path d="M5.06435 4.21575C5.20307 3.60508 5.55042 3.05894 6.04907 2.66747C6.54771 2.276 7.16785 2.06261 7.80712 2.0625H15.6666C16.306 2.06245 16.9263 2.27578 17.4251 2.66726C17.9239 3.05874 18.2713 3.60496 18.4101 4.21575L18.8576 6.1875H19.4653C19.6516 6.1875 19.8303 6.25993 19.9621 6.38886C20.0939 6.5178 20.1679 6.69266 20.1679 6.875C20.1679 7.05734 20.0939 7.2322 19.9621 7.36114C19.8303 7.49007 19.6516 7.5625 19.4653 7.5625H19.1702L19.4021 8.58344C19.8464 8.81971 20.2173 9.16891 20.4757 9.59422C20.7341 10.0195 20.8705 10.5052 20.8704 11V17.875C20.8704 18.422 20.6484 18.9466 20.2531 19.3334C19.8578 19.7202 19.3218 19.9375 18.7628 19.9375H18.0602C17.5012 19.9375 16.9651 19.7202 16.5699 19.3334C16.1746 18.9466 15.9525 18.422 15.9525 17.875V17.1875H7.52189V17.875C7.52189 18.422 7.29983 18.9466 6.90457 19.3334C6.5093 19.7202 5.97321 19.9375 5.41422 19.9375H4.71167C4.15268 19.9375 3.61659 19.7202 3.22132 19.3334C2.82606 18.9466 2.604 18.422 2.604 17.875V11C2.60394 10.5052 2.74031 10.0195 2.99874 9.59422C3.25716 9.16891 3.62807 8.81971 4.07234 8.58344L4.30419 7.5625H4.00911C3.82278 7.5625 3.64409 7.49007 3.51233 7.36114C3.38058 7.2322 3.30656 7.05734 3.30656 6.875C3.30656 6.69266 3.38058 6.5178 3.51233 6.38886C3.64409 6.25993 3.82278 6.1875 4.00911 6.1875H4.61612L5.06435 4.21575ZM5.58775 8.25H17.8867L17.0387 4.51412C16.9693 4.20867 16.7955 3.93552 16.5461 3.73977C16.2966 3.54402 15.9864 3.4374 15.6666 3.4375H7.80783C7.48807 3.4374 7.17783 3.54402 6.92837 3.73977C6.6789 3.93552 6.50513 4.20867 6.43574 4.51412L5.58775 8.25ZM4.00911 17.1875V17.875C4.00911 18.0573 4.08313 18.2322 4.21489 18.3611C4.34664 18.4901 4.52534 18.5625 4.71167 18.5625H5.41422C5.60055 18.5625 5.77925 18.4901 5.911 18.3611C6.04276 18.2322 6.11678 18.0573 6.11678 17.875V17.1875H4.00911ZM17.3577 17.1875V17.875C17.3577 18.0573 17.4317 18.2322 17.5634 18.3611C17.6952 18.4901 17.8739 18.5625 18.0602 18.5625H18.7628C18.9491 18.5625 19.1278 18.4901 19.2595 18.3611C19.3913 18.2322 19.4653 18.0573 19.4653 17.875V17.1875H17.3577ZM9.27827 13.75C9.27827 13.9323 9.35229 14.1072 9.48405 14.2361C9.6158 14.3651 9.7945 14.4375 9.98083 14.4375H13.4936C13.6799 14.4375 13.8586 14.3651 13.9904 14.2361C14.1221 14.1072 14.1962 13.9323 14.1962 13.75C14.1962 13.5677 14.1221 13.3928 13.9904 13.2639C13.8586 13.1349 13.6799 13.0625 13.4936 13.0625H9.98083C9.7945 13.0625 9.6158 13.1349 9.48405 13.2639C9.35229 13.3928 9.27827 13.5677 9.27827 13.75ZM7.17061 13.0625C7.4501 13.0625 7.71815 12.9538 7.91578 12.7605C8.11341 12.5671 8.22444 12.3048 8.22444 12.0312C8.22444 11.7577 8.11341 11.4954 7.91578 11.302C7.71815 11.1087 7.4501 11 7.17061 11C6.89112 11 6.62307 11.1087 6.42544 11.302C6.22781 11.4954 6.11678 11.7577 6.11678 12.0312C6.11678 12.3048 6.22781 12.5671 6.42544 12.7605C6.62307 12.9538 6.89112 13.0625 7.17061 13.0625ZM17.3577 12.0312C17.3577 11.7577 17.2466 11.4954 17.049 11.302C16.8514 11.1087 16.5833 11 16.3038 11C16.0243 11 15.7563 11.1087 15.5587 11.302C15.361 11.4954 15.25 11.7577 15.25 12.0312C15.25 12.3048 15.361 12.5671 15.5587 12.7605C15.7563 12.9538 16.0243 13.0625 16.3038 13.0625C16.5833 13.0625 16.8514 12.9538 17.049 12.7605C17.2466 12.5671 17.3577 12.3048 17.3577 12.0312Z" fill="white"/>
</svg>
