<svg width="10" height="10" viewBox="0 0 10 10" fill="none" xmlns="http://www.w3.org/2000/svg">
<g clip-path="url(#clip0_112_8900)">
<path d="M9.90851 8.0336L6.87476 4.99985L9.90851 1.9661C9.96664 1.90726 9.99923 1.82787 9.99923 1.74516C9.99923 1.66245 9.96664 1.58307 9.90851 1.52422L8.47538 0.091099C8.41678 0.0325143 8.33731 -0.000396729 8.25444 -0.000396729C8.17158 -0.000396729 8.09211 0.0325143 8.03351 0.091099L4.99976 3.12485L1.96601 0.091099C1.9074 0.0325143 1.82793 -0.000396729 1.74507 -0.000396729C1.66221 -0.000396729 1.58273 0.0325143 1.52413 0.091099L0.0910075 1.52422C0.0324228 1.58283 -0.000488281 1.6623 -0.000488281 1.74516C-0.000488281 1.82803 0.0324228 1.9075 0.0910075 1.9661L3.12476 4.99985L0.0910075 8.0336C0.0324228 8.0922 -0.000488281 8.17167 -0.000488281 8.25454C-0.000488281 8.3374 0.0324228 8.41687 0.0910075 8.47547L1.52413 9.9086C1.58273 9.96718 1.66221 10.0001 1.74507 10.0001C1.82793 10.0001 1.9074 9.96718 1.96601 9.9086L4.99976 6.87485L8.03351 9.9086C8.09211 9.96718 8.17158 10.0001 8.25444 10.0001C8.33731 10.0001 8.41678 9.96718 8.47538 9.9086L9.90851 8.47547C9.96709 8.41687 10 8.3374 10 8.25454C10 8.17167 9.96709 8.0922 9.90851 8.0336Z" fill="#484848"/>
</g>
<defs>
<clipPath id="clip0_112_8900">
<rect width="10" height="10" fill="white"/>
</clipPath>
</defs>
</svg>
