<svg width="16" height="16" viewBox="0 0 16 16" fill="none" xmlns="http://www.w3.org/2000/svg">
<path d="M5.48 11.32L12.6 9.44C12.8 9.38667 12.9501 9.26347 13.0504 9.0704C13.1507 8.87733 13.1739 8.68053 13.12 8.48C13.0661 8.27947 12.9496 8.1296 12.7704 8.0304C12.5912 7.9312 12.4011 7.90773 12.2 7.96L10.24 8.48L7.04 5.48L5.92 5.76L7.84 9.12L5.92 9.6L4.92 8.84L4.16 9.04L5.48 11.32ZM14.4 14.8H1.6C1.16 14.8 0.783467 14.6435 0.4704 14.3304C0.157333 14.0173 0.000533333 13.6405 0 13.2V10C0.44 10 0.8168 9.84347 1.1304 9.5304C1.444 9.21733 1.60053 8.84053 1.6 8.4C1.59947 7.95947 1.44293 7.58293 1.1304 7.2704C0.817867 6.95787 0.441067 6.80107 0 6.8V3.6C0 3.16 0.1568 2.78347 0.4704 2.4704C0.784 2.15733 1.16053 2.00053 1.6 2H14.4C14.84 2 15.2168 2.1568 15.5304 2.4704C15.844 2.784 16.0005 3.16053 16 3.6V13.2C16 13.64 15.8435 14.0168 15.5304 14.3304C15.2173 14.644 14.8405 14.8005 14.4 14.8Z" fill="#191919"/>
</svg>
