<svg width="22" height="22" viewBox="0 0 22 22" fill="none" xmlns="http://www.w3.org/2000/svg">
<path d="M18.3334 16.0417C18.6865 16.0418 19.026 16.1779 19.2816 16.4215C19.5372 16.6652 19.6892 16.9979 19.7061 17.3506C19.7231 17.7033 19.6037 18.049 19.3728 18.3161C19.1418 18.5832 18.8169 18.7512 18.4654 18.7853L18.3334 18.7917H3.66675C3.31363 18.7915 2.97412 18.6555 2.71856 18.4118C2.463 18.1681 2.31099 17.8355 2.29402 17.4827C2.27705 17.13 2.39642 16.7843 2.62741 16.5172C2.85839 16.2501 3.18328 16.0822 3.53475 16.0481L3.66675 16.0417H18.3334ZM18.3334 9.625C18.6981 9.625 19.0478 9.76987 19.3057 10.0277C19.5635 10.2856 19.7084 10.6353 19.7084 11C19.7084 11.3647 19.5635 11.7144 19.3057 11.9723C19.0478 12.2301 18.6981 12.375 18.3334 12.375H3.66675C3.30208 12.375 2.95234 12.2301 2.69448 11.9723C2.43661 11.7144 2.29175 11.3647 2.29175 11C2.29175 10.6353 2.43661 10.2856 2.69448 10.0277C2.95234 9.76987 3.30208 9.625 3.66675 9.625H18.3334ZM18.3334 3.20833C18.6981 3.20833 19.0478 3.3532 19.3057 3.61106C19.5635 3.86892 19.7084 4.21866 19.7084 4.58333C19.7084 4.94801 19.5635 5.29774 19.3057 5.55561C19.0478 5.81347 18.6981 5.95833 18.3334 5.95833H3.66675C3.30208 5.95833 2.95234 5.81347 2.69448 5.55561C2.43661 5.29774 2.29175 4.94801 2.29175 4.58333C2.29175 4.21866 2.43661 3.86892 2.69448 3.61106C2.95234 3.3532 3.30208 3.20833 3.66675 3.20833H18.3334Z" fill="#191919"/>
</svg>
