<svg width="24" height="22" viewBox="0 0 24 22" fill="none" xmlns="http://www.w3.org/2000/svg">
<path fill-rule="evenodd" clip-rule="evenodd" d="M16.8954 2.75C17.3923 2.75 17.8688 2.94315 18.2201 3.28697C18.5715 3.63079 18.7689 4.0971 18.7689 4.58333V5.5H19.7056C19.9541 5.5 20.1923 5.59658 20.368 5.76849C20.5437 5.94039 20.6424 6.17355 20.6424 6.41667C20.6424 6.65978 20.5437 6.89294 20.368 7.06485C20.1923 7.23676 19.9541 7.33333 19.7056 7.33333V17.4167C19.9541 17.4167 20.1923 17.5132 20.368 17.6852C20.5437 17.8571 20.6424 18.0902 20.6424 18.3333C20.6424 18.5764 20.5437 18.8096 20.368 18.9815C20.1923 19.1534 19.9541 19.25 19.7056 19.25H13.6168V15.125C13.6168 14.7603 13.4688 14.4106 13.2053 14.1527C12.9417 13.8949 12.5844 13.75 12.2117 13.75C11.839 13.75 11.4816 13.8949 11.2181 14.1527C10.9546 14.4106 10.8066 14.7603 10.8066 15.125V19.25H4.71778C4.46934 19.25 4.23107 19.1534 4.0554 18.9815C3.87973 18.8096 3.78104 18.5764 3.78104 18.3333C3.78104 18.0902 3.87973 17.8571 4.0554 17.6852C4.23107 17.5132 4.46934 17.4167 4.71778 17.4167V7.33333C4.46934 7.33333 4.23107 7.23676 4.0554 7.06485C3.87973 6.89294 3.78104 6.65978 3.78104 6.41667C3.78104 6.17355 3.87973 5.94039 4.0554 5.76849C4.23107 5.59658 4.46934 5.5 4.71778 5.5H5.65452V4.58333C5.65452 4.0971 5.8519 3.63079 6.20325 3.28697C6.55459 2.94315 7.03112 2.75 7.528 2.75H16.8954ZM8.46474 11.9167C8.2163 11.9167 7.97803 12.0132 7.80236 12.1852C7.62669 12.3571 7.528 12.5902 7.528 12.8333V13.75C7.528 13.9931 7.62669 14.2263 7.80236 14.3982C7.97803 14.5701 8.2163 14.6667 8.46474 14.6667C8.71317 14.6667 8.95144 14.5701 9.12711 14.3982C9.30278 14.2263 9.40147 13.9931 9.40147 13.75V12.8333C9.40147 12.5902 9.30278 12.3571 9.12711 12.1852C8.95144 12.0132 8.71317 11.9167 8.46474 11.9167ZM15.9587 11.9167C15.7292 11.9167 15.5078 11.9991 15.3363 12.1483C15.1649 12.2975 15.0553 12.5031 15.0285 12.7261L15.0219 12.8333V13.75C15.0222 13.9836 15.1136 14.2084 15.2775 14.3783C15.4414 14.5481 15.6654 14.6504 15.9038 14.6641C16.1421 14.6778 16.3768 14.6019 16.5599 14.4519C16.743 14.302 16.8606 14.0893 16.8888 13.8573L16.8954 13.75V12.8333C16.8954 12.5902 16.7967 12.3571 16.621 12.1852C16.4454 12.0132 16.2071 11.9167 15.9587 11.9167ZM8.46474 8.25C8.2353 8.25003 8.01385 8.33246 7.84239 8.48166C7.67094 8.63085 7.5614 8.83644 7.53455 9.05942L7.528 9.16667V10.0833C7.52826 10.317 7.61968 10.5417 7.78358 10.7116C7.94748 10.8815 8.17149 10.9837 8.40984 10.9974C8.64818 11.0111 8.88288 10.9352 9.06596 10.7853C9.24905 10.6353 9.36672 10.4226 9.39492 10.1906L9.40147 10.0833V9.16667C9.40147 8.92355 9.30278 8.69039 9.12711 8.51849C8.95144 8.34658 8.71317 8.25 8.46474 8.25ZM12.2117 8.25C11.9823 8.25003 11.7608 8.33246 11.5893 8.48166C11.4179 8.63085 11.3084 8.83644 11.2815 9.05942L11.275 9.16667V10.0833C11.2752 10.317 11.3666 10.5417 11.5305 10.7116C11.6944 10.8815 11.9185 10.9837 12.1568 10.9974C12.3951 11.0111 12.6298 10.9352 12.8129 10.7853C12.996 10.6353 13.1137 10.4226 13.1419 10.1906L13.1484 10.0833V9.16667C13.1484 8.92355 13.0497 8.69039 12.8741 8.51849C12.6984 8.34658 12.4601 8.25 12.2117 8.25ZM15.9587 8.25C15.7102 8.25 15.472 8.34658 15.2963 8.51849C15.1206 8.69039 15.0219 8.92355 15.0219 9.16667V10.0833C15.0219 10.3264 15.1206 10.5596 15.2963 10.7315C15.472 10.9034 15.7102 11 15.9587 11C16.2071 11 16.4454 10.9034 16.621 10.7315C16.7967 10.5596 16.8954 10.3264 16.8954 10.0833V9.16667C16.8954 8.92355 16.7967 8.69039 16.621 8.51849C16.4454 8.34658 16.2071 8.25 15.9587 8.25ZM16.8954 4.58333H7.528V5.5H16.8954V4.58333Z" fill="white"/>
</svg>
