<svg width="16" height="16" viewBox="0 0 16 16" fill="none" xmlns="http://www.w3.org/2000/svg">
<path d="M13.688 11.1633C13.358 10.5247 12.6613 10.0967 11.8186 10.2027C10.9276 10.3115 10.0438 10.4731 9.17198 10.6867C7.83198 11.0213 6.65798 11.6647 5.78998 12.252L5.49665 12.456L5.22998 12.6527L4.99132 12.8367L4.78198 13.006L4.60398 13.1567L4.45732 13.2847C3.89532 13.7853 4.27732 14.6033 4.91398 14.6633L4.98865 14.6667H10.718C11.8393 14.6667 12.7713 14.1033 13.454 13.2493C13.97 12.6047 14.014 11.794 13.6873 11.1633H13.688ZM3.33332 1.33334C2.73798 1.33334 2.48132 1.89334 2.35532 2.40668L2.31532 2.58534L2.29931 2.67068C2.20331 3.20201 2.15198 3.89868 2.13132 4.61468C2.09132 6.03134 2.17265 7.68268 2.34932 8.47801C2.65732 9.86601 3.10932 10.8307 3.65065 11.412C4.20132 12.0053 4.94532 12.2727 5.63132 11.9293C6.15732 11.6667 6.47132 11.042 6.64332 10.5093C6.89454 9.733 6.89057 8.8966 6.63198 8.12268C6.49198 7.70134 6.23998 7.36134 5.96265 7.03801L5.72065 6.76401C5.42598 6.43401 5.13065 6.10401 4.92932 5.70201C4.63598 5.11534 4.55598 4.47334 4.53132 3.82868L4.52198 3.44201L4.51598 3.06868L4.51198 2.97668L4.49865 2.79001C4.43532 2.07134 4.18932 1.33334 3.33332 1.33334Z" fill="#191919"/>
</svg>
