<svg width="24" height="22" viewBox="0 0 24 22" fill="none" xmlns="http://www.w3.org/2000/svg">
<path fill-rule="evenodd" clip-rule="evenodd" d="M13.075 14.2956L15.1646 12.4212L16.8193 18.2171C16.8712 18.3987 16.9699 18.5642 17.106 18.6977C17.2421 18.8312 17.4109 18.9282 17.5964 18.9795C17.7818 19.0307 17.9776 19.0345 18.1649 18.9903C18.3523 18.9462 18.5249 18.8557 18.6662 18.7275C20.4411 17.116 21.4089 15.6255 21.4977 14.1845C21.5607 13.1494 21.0683 11.1705 20.0151 8.06849L20.2736 7.83639C22.8017 5.36359 23.5323 3.20759 21.8844 1.59499C20.2376 -0.0165108 18.0333 0.697389 15.5401 3.13499L15.2703 3.42319C12.0992 2.39359 10.077 1.91179 9.01925 1.97339C7.54557 2.05919 6.02355 3.00739 4.37676 4.74429C4.24575 4.88256 4.15325 5.05146 4.10815 5.23479C4.06306 5.41812 4.06688 5.60971 4.11925 5.79118C4.17162 5.97264 4.27078 6.13789 4.40721 6.27105C4.54364 6.40421 4.71277 6.50081 4.89834 6.55159L10.8223 8.17079L8.90684 10.2157C6.97341 9.95609 5.76164 9.84389 5.17487 9.87799C4.1216 9.93959 3.08519 10.5853 1.9892 11.7414C1.85818 11.8797 1.76569 12.0486 1.72059 12.2319C1.6755 12.4152 1.67932 12.6068 1.73169 12.7883C1.78406 12.9697 1.88322 13.135 2.01965 13.2682C2.15608 13.4013 2.3252 13.4979 2.51078 13.5487L7.74116 14.9787L8.20766 15.4341L9.66897 20.5535C9.72086 20.7351 9.81958 20.9006 9.95565 21.0341C10.0917 21.1676 10.2606 21.2646 10.446 21.3159C10.6315 21.3671 10.8273 21.3709 11.0146 21.3267C11.2019 21.2826 11.3745 21.1921 11.5158 21.0639C12.6961 19.9914 13.3571 18.9772 13.42 17.9465C13.4538 17.3723 13.3391 16.1865 13.075 14.2956ZM11.1202 13.0647C10.9858 13.1854 10.8834 13.3363 10.8219 13.5044C10.7604 13.6724 10.7416 13.8526 10.7672 14.0294C11.0359 15.8851 11.1719 17.127 11.1786 17.6638L10.2928 14.5651C10.2408 14.383 10.1417 14.217 10.0051 14.0833L9.12266 13.2187C8.98601 13.085 8.81644 12.988 8.63031 12.9371L5.46263 12.0714C6.01119 12.0769 7.28253 12.2111 9.17774 12.474C9.35855 12.4992 9.54291 12.4809 9.71488 12.4208C9.88684 12.3606 10.0412 12.2603 10.1647 12.1286L13.7168 8.33689C13.8467 8.1982 13.9381 8.02924 13.9822 7.84614C14.0263 7.66304 14.0217 7.47192 13.9688 7.29106C13.9159 7.1102 13.8165 6.94563 13.6801 6.81309C13.5437 6.68054 13.3748 6.58445 13.1896 6.53399L7.43091 4.96099C8.10424 4.45499 8.68314 4.19759 9.15301 4.17009C9.87468 4.12829 11.9801 4.65299 15.2433 5.73649C15.4497 5.80499 15.6721 5.81328 15.8832 5.76035C16.0944 5.70742 16.2852 5.59556 16.4326 5.43839L17.1633 4.65849C18.8573 3.00299 19.8229 2.68949 20.295 3.15149C20.7671 3.61349 20.4467 4.55839 18.719 6.24909L17.958 6.93109C17.7974 7.07529 17.6831 7.26207 17.629 7.4687C17.5749 7.67533 17.5834 7.89289 17.6534 8.09489C18.7606 11.2871 19.2968 13.3485 19.2529 14.0547C19.226 14.5134 18.9618 15.081 18.4458 15.7399L16.8373 10.1046C16.7857 9.92325 16.6874 9.7579 16.5518 9.62437C16.4162 9.49084 16.2478 9.39359 16.0629 9.34194C15.8779 9.29028 15.6824 9.28594 15.4953 9.32934C15.3081 9.37274 15.1354 9.46241 14.9938 9.58979L11.1202 13.0647Z" fill="#191919"/>
</svg>
